<svg xmlns="http://www.w3.org/2000/svg" viewBox="0 0 141.032 141.031">
  <title>Fichier 2</title>
  <g id="Calque_2" data-name="Calque 2">
    <g id="board">
      <g>
        <g>
          <path d="M87.453,108.523A14.623,14.623,0,0,1,77.54,94.633V78.384H64.126V94.656a14.622,14.622,0,0,1-9.892,13.884,35.021,35.021,0,0,0-21.714,21.366,70.453,70.453,0,0,0,76.564-.368A35.021,35.021,0,0,0,87.453,108.523Z" style="fill: #982f37"/>
          <path d="M32.517,129.9a70.2,70.2,0,0,0,11.018,5.77V114.418A35.1,35.1,0,0,0,32.517,129.9Z" style="fill: #f9b282"/>
          <path d="M109.081,129.541a35.1,35.1,0,0,0-11.362-15.5v21.546A70.338,70.338,0,0,0,109.081,129.541Z" style="fill: #f9b282"/>
          <g>
            <path d="M73.377,113.9H68.418a17.843,17.843,0,0,0-16.506,24.636,70.481,70.481,0,0,0,38.06-.242A17.823,17.823,0,0,0,73.377,113.9Z" style="fill: #a9363f"/>
            <path d="M54.235,108.54a34.5,34.5,0,0,0-6.561,3.013A23.524,23.524,0,0,0,67.626,122.6H74.17a23.524,23.524,0,0,0,19.935-11.02,34.6,34.6,0,0,0-6.652-3.055A14.623,14.623,0,0,1,77.54,94.633V78.384H64.126V94.656A14.622,14.622,0,0,1,54.235,108.54Z" style="fill: #f9b382"/>
            <path d="M84.269,107.919V107a14.6,14.6,0,0,1-5.565-6.619,19.132,19.132,0,0,1-15.75.045,14.592,14.592,0,0,1-5.665,6.668v.828l.049.051A19.078,19.078,0,0,0,84.269,107.919Z" style="fill: #cfa35c"/>
            <path d="M55.624,119.308a23.416,23.416,0,0,0,12,3.29H74.17a23.417,23.417,0,0,0,12-3.29,17.783,17.783,0,0,0-12.794-5.41H68.418A17.782,17.782,0,0,0,55.624,119.308Z" style="fill: #fac29c"/>
            <path d="M71.089,97.551a17.479,17.479,0,0,0,6.531-1.4,14.909,14.909,0,0,1-.081-1.519V78.384H64.126v13.23h0v3.041c0,.426-.019.848-.055,1.267A17.507,17.507,0,0,0,71.089,97.551Z" style="fill: #d79667"/>
            <g>
              <circle cx="50.919" cy="60.521" r="13.569" style="fill: #d79667"/>
              <circle cx="91.227" cy="60.521" r="13.569" style="fill: #d79667"/>
              <path d="M62.286,54.621c-1.1,0-25.19-2.907-25.19-6.963s24.088-6.963,25.19-6.963,1.995,2.907,1.995,6.963S63.388,54.621,62.286,54.621Z" style="fill: #d4b089"/>
              <path d="M79.4,54.621c1.1,0,25.19-2.907,25.19-6.963S80.5,40.695,79.4,40.695,77.4,43.6,77.4,47.658,78.3,54.621,79.4,54.621Z" style="fill: #d4b089"/>
            </g>
            <path d="M97.83,47.085C97.592,28.873,85.38,20.517,70.67,20.517c-14.859,0-26.913,8.524-26.913,27.119V64.492c0,16.6,14.959,30.182,26.883,30.182S97.83,81.092,97.83,64.492Z" style="fill: #f9b382"/>
            <path d="M71.1,94.674a24.077,24.077,0,0,0,2.413-.128V82.825H68.1V94.481A23.944,23.944,0,0,0,71.1,94.674Z" style="fill: #e1a376"/>
            <path d="M95.155,76.434l-8.788-8.765V60.68a1.9,1.9,0,1,0-3.8,0V90.809A32.6,32.6,0,0,0,86.367,88V73.04l6.915,6.9A32.389,32.389,0,0,0,95.155,76.434Z" style="fill: #e1a376"/>
            <path d="M48.529,80.285l7.264-7.245V88.653a26.555,26.555,0,0,0,3.8,2.474V60.68a1.9,1.9,0,1,0-3.8,0v6.989l-9.06,9.037A31.462,31.462,0,0,0,48.529,80.285Z" style="fill: #e1a376"/>
            <path d="M94.6,53.68c-.209-17.259-10.962-26.7-23.916-26.7-13.083,0-23.7,9.6-23.7,27.221v7.99c0,15.731,13.171,28.6,23.673,28.6S94.6,77.922,94.6,62.191Z" style="fill: #fac29c"/>
            <path d="M94.6,53.68c-.209-17.259-10.962-26.7-23.916-26.7-13.083,0-23.7,9.6-23.7,27.221v7.99c0,15.731,13.171,28.6,23.673,28.6S94.6,77.922,94.6,62.191Z" style="fill: #fac29c"/>
            <path d="M68.1,90.544a14.247,14.247,0,0,0,2.559.25,14.467,14.467,0,0,0,2.849-.3V82.825H68.1Z" style="fill: #f9b382"/>
            <g>
              <path d="M86.367,67.669V60.68a1.9,1.9,0,1,0-3.8,0V86.108a30.6,30.6,0,0,0,3.8-3.5V73.04l4.07,4.059a31.5,31.5,0,0,0,1.8-3.576Z" style="fill: #f9b382"/>
              <path d="M57.694,58.778a1.9,1.9,0,0,0-1.9,1.9v6.989l-6.3,6.284A31.7,31.7,0,0,0,51.317,77.5l4.476-4.464V83.37a29.34,29.34,0,0,0,3.8,3.315V60.68A1.9,1.9,0,0,0,57.694,58.778Z" style="fill: #f9b382"/>
            </g>
            <path d="M75.582,70.291c0,1.921-2.086,3.479-4.659,3.479s-4.659-1.558-4.659-3.479,2.086-10.324,4.659-10.324S75.582,68.37,75.582,70.291Z" style="fill: #f58771"/>
            <path d="M86.409,66.858" style="fill: #f9a870"/>
            <path d="M55.354,66.858" style="fill: #f9a870"/>
            <circle cx="70.949" cy="69.403" r="2.535" style="fill: #f79e8e"/>
            <path d="M55.354,66.858" style="fill: #f9a870"/>
          </g>
          <path d="M93.728,61.082H80.123l3.644,6.7h3.261A6.7,6.7,0,0,0,93.728,61.082Z" style="fill: #ba835a"/>
          <path d="M84.271,54.473h.506a6.417,6.417,0,0,1,6.417,6.417V63a4.784,4.784,0,0,1-4.784,4.784H82.615a4.92,4.92,0,0,1-4.92-4.92V61.049A6.576,6.576,0,0,1,84.271,54.473Z" style="fill: #fff"/>
          <path d="M48.035,61.082H61.641L58,67.782H54.734A6.7,6.7,0,0,1,48.035,61.082Z" style="fill: #ba835a"/>
          <path d="M55.49,54.473h3.794a4.784,4.784,0,0,1,4.784,4.784v2.109a6.416,6.416,0,0,1-6.416,6.416h-.506a6.576,6.576,0,0,1-6.576-6.576V59.394A4.92,4.92,0,0,1,55.49,54.473Z" transform="translate(114.638 122.255) rotate(180)" style="fill: #fff"/>
          <path d="M84.445,65.833h0a2.289,2.289,0,0,1-2.282-2.282V58.513a2.289,2.289,0,0,1,2.282-2.281h0a2.288,2.288,0,0,1,2.281,2.281v5.038A2.289,2.289,0,0,1,84.445,65.833Z" style="fill: #9a6a26"/>
          <path d="M57.318,65.833h0A2.29,2.29,0,0,0,59.6,63.551V58.513a2.289,2.289,0,0,0-2.282-2.281h0a2.288,2.288,0,0,0-2.282,2.281v5.038A2.289,2.289,0,0,0,57.318,65.833Z" style="fill: #9a6a26"/>
          <path d="M65.819,79.808c0,1.891,2.266,3.422,5.062,3.422s5.061-1.531,5.061-3.422" style="fill: #c28155"/>
          <path d="M64.068,81.126c0-1.988,3.05-3.6,6.814-3.6s6.814,1.611,6.814,3.6" style="fill: #d79667"/>
          <path d="M74.33,6.032H67.862a23.821,23.821,0,0,0-18.45,8.637,3.734,3.734,0,0,0,.249,5.01h0a3.729,3.729,0,0,0,2.651,1.094l37.479-.094a3.731,3.731,0,0,0,2.631-1.094l.018-.018a3.732,3.732,0,0,0,.236-5.026A23.825,23.825,0,0,0,74.33,6.032Z" style="fill: #5b5b87"/>
          <path d="M73.213,50.921a2.365,2.365,0,0,1-2.364,2.364h0a2.364,2.364,0,0,1-2.363-2.364V37.685a2.363,2.363,0,0,1,2.363-2.364h0a2.364,2.364,0,0,1,2.364,2.364Z" style="fill: #f9b382"/>
          <path d="M69.949,13.517h2.318a6.467,6.467,0,0,1,6.467,6.467v9.433a6.467,6.467,0,0,1-6.467,6.467H69.949a6.466,6.466,0,0,1-6.466-6.466V19.982A6.466,6.466,0,0,1,69.949,13.517Z" style="fill: #931c23"/>
          <path d="M58.635,22.729,63.29,35.373a8.073,8.073,0,0,0,7.575,5.282h0a8.072,8.072,0,0,0,7.574-5.282l4.61-12.523A31.949,31.949,0,0,0,70.67,20.517,31.732,31.732,0,0,0,58.635,22.729Z" style="fill: #5b5b87"/>
          <path d="M57.352,32.266a3.314,3.314,0,0,1-4.689,0c-1.294-1.293-3.449-5.548-2.155-6.843s5.548.861,6.844,2.155A3.316,3.316,0,0,1,57.352,32.266Z" style="fill: #d4b089"/>
          <path d="M84.619,32.266a3.314,3.314,0,0,0,4.689,0c1.294-1.293,3.449-5.548,2.155-6.843s-5.549.861-6.844,2.155A3.316,3.316,0,0,0,84.619,32.266Z" style="fill: #d4b089"/>
          <path d="M57.352,39.871a3.316,3.316,0,0,1-4.689,0c-1.294-1.294-3.449-5.549-2.155-6.844s5.548.861,6.844,2.155A3.316,3.316,0,0,1,57.352,39.871Z" style="fill: #d4b089"/>
          <path d="M84.619,39.871a3.316,3.316,0,0,0,4.689,0c1.294-1.294,3.449-5.549,2.155-6.844s-5.549.861-6.844,2.155A3.316,3.316,0,0,0,84.619,39.871Z" style="fill: #d4b089"/>
        </g>
      </g>
    </g>
  </g>
</svg>
