<svg xmlns="http://www.w3.org/2000/svg" viewBox="0 0 143.031 143.031">
  <title>Fichier 2</title>
  <g id="Calque_2" data-name="Calque 2">
    <g id="board">
      <g>
        <g>
          <g>
            <path d="M73.518,26.931c.109,0,.216-.007.327-.007H72.789c.11,0,.217.005.326.007-17.9.145-32.3,5.626-32.3,20.646v51.95c0,15.021,14.4,20.5,32.3,20.647-.108,0-.216.006-.326.006h1.056c-.11,0-.217-.006-.327-.006,17.906-.145,32.3-5.626,32.3-20.647V47.577C105.821,32.557,91.424,27.075,73.518,26.931Z" style="fill: #25200f"/>
            <path d="M89.094,109.762A14.768,14.768,0,0,1,79.081,95.732V79.318H65.532V95.756a14.769,14.769,0,0,1-9.993,14.023,35.378,35.378,0,0,0-21.818,21.256,70.482,70.482,0,0,0,76.91-.848A35.377,35.377,0,0,0,89.094,109.762Z" style="fill: #312b1b"/>
            <path d="M71.515,142.031a70.178,70.178,0,0,0,39.031-11.789q-1.5-2.994-2.931-5.6-.712-1.3-1.488-2.51a35.291,35.291,0,0,0-17.032-12.373,14.384,14.384,0,0,1-3.1-1.467c-.28-.059-.559-.119-.844-.174l-.008,0c-2.5-.772-3.841-3.152-4.543-5.83a14.892,14.892,0,0,1-1.518-6.555V92.512H65.532v3.244a14.9,14.9,0,0,1-2,7.457c-.758,2.287-2.064,4.223-4.272,4.9l-.007,0c-.163.031-.319.066-.48.1a14.5,14.5,0,0,1-3.235,1.56A35.342,35.342,0,0,0,36.271,125.6c-.376.7-.755,1.407-1.138,2.143a35.493,35.493,0,0,0-1.4,3.295A70.159,70.159,0,0,0,71.515,142.031Z" style="fill: #393222"/>
            <path d="M72.385,120.166a62.91,62.91,0,0,0,26.332-5.4,35.026,35.026,0,0,0-9.623-5.008,14.384,14.384,0,0,1-3.1-1.467c-.28-.059-.559-.119-.844-.174l-.008,0c-2.5-.772-3.841-3.152-4.543-5.83a14.892,14.892,0,0,1-1.518-6.555V92.512H65.532v3.244a14.9,14.9,0,0,1-2,7.457c-.758,2.287-2.064,4.223-4.272,4.9l-.007,0c-.163.031-.319.066-.48.1a14.5,14.5,0,0,1-3.235,1.56A34.99,34.99,0,0,0,46,114.747,62.9,62.9,0,0,0,72.385,120.166Z" style="fill: #312b1b"/>
            <g>
              <path d="M72.565,98.68a17.621,17.621,0,0,0,6.6-1.414,14.879,14.879,0,0,1-.081-1.533V79.318H65.532V92.683h0v3.072c0,.428-.02.856-.056,1.278A17.682,17.682,0,0,0,72.565,98.68Z" style="fill: #292414"/>
              <path d="M99.518,46.77c-.239-18.4-12.575-26.837-27.434-26.837-15.009,0-27.184,8.61-27.184,27.393V64.352c0,16.768,15.109,30.486,27.155,30.486S99.518,81.12,99.518,64.352Z" style="fill: #9cb341"/>
              <path d="M96.43,54.365C96.219,36.933,85.357,27.4,72.271,27.4c-13.215,0-23.937,9.7-23.937,27.5v8.07c0,15.89,13.3,28.891,23.913,28.891s24.184-13,24.184-28.891Z" style="fill: #b6c64f"/>
              <g>
                <path d="M48.333,66.634c0-.87.032-1.715.083-2.546-.049-.681-.083-1.366-.083-2.06Z" style="fill: #b6c64f"/>
                <path d="M96.43,62.028c0,.682-.034,1.354-.083,2.024.043.674.073,1.354.083,2.054Z" style="fill: #b6c64f"/>
              </g>
              <path d="M77.1,71.144c0,1.941-2.105,3.514-4.7,3.514s-4.706-1.573-4.706-3.514S69.8,60.717,72.4,60.717,77.1,69.2,77.1,71.144Z" style="fill: #9e9e44"/>
              <path d="M88.04,67.675" style="fill: #f9a870"/>
              <path d="M56.671,67.675" style="fill: #f9a870"/>
              <path d="M67.242,79.823c0,1.91,2.289,3.456,5.113,3.456s5.113-1.547,5.113-3.456" style="fill: #302f31"/>
              <path d="M72.355,77.518c-3.8,0-6.882,1.627-6.882,3.635H79.237C79.237,79.145,76.156,77.518,72.355,77.518Z" style="fill: #434145"/>
              <circle cx="72.423" cy="70.248" r="2.561" style="fill: #b2b041"/>
              <path d="M56.671,67.675" style="fill: #f9a870"/>
              <g>
                <path d="M81.558,60.908l3.681,6.767h3.294A6.768,6.768,0,0,0,95.3,60.908H81.558Z" style="fill: #3b3424"/>
                <path d="M49.277,60.908a6.768,6.768,0,0,0,6.768,6.767h3.294l3.681-6.767Z" style="fill: #3b3424"/>
              </g>
              <path d="M56.808,54.232H60.64a4.833,4.833,0,0,1,4.833,4.833v2.129a6.481,6.481,0,0,1-6.481,6.481h-.512a6.643,6.643,0,0,1-6.643-6.643V59.2A4.971,4.971,0,0,1,56.808,54.232Z" transform="translate(117.31 121.908) rotate(180)" style="fill: #fff"/>
              <path d="M58.655,65.708h0a2.313,2.313,0,0,0,2.3-2.305V58.314a2.312,2.312,0,0,0-2.3-2.305h0a2.312,2.312,0,0,0-2.3,2.305V63.4A2.312,2.312,0,0,0,58.655,65.708Z" style="fill: #516b85"/>
              <path d="M85.748,54.232h.512a6.481,6.481,0,0,1,6.481,6.481v2.129a4.833,4.833,0,0,1-4.833,4.833H84.076a4.97,4.97,0,0,1-4.97-4.97v-1.83A6.643,6.643,0,0,1,85.748,54.232Z" style="fill: #fff"/>
              <path d="M85.924,65.708h0a2.312,2.312,0,0,1-2.3-2.305V58.314a2.311,2.311,0,0,1,2.3-2.305h0a2.312,2.312,0,0,1,2.3,2.305V63.4A2.313,2.313,0,0,1,85.924,65.708Z" style="fill: #516b85"/>
            </g>
            <path d="M58.011,69.376h1.5a.952.952,0,0,1,.952.952v1.5a.951.951,0,0,1-.951.951h-1.5a.952.952,0,0,1-.952-.952v-1.5A.952.952,0,0,1,58.011,69.376Z" transform="translate(-33.051 62.392) rotate(-45.014)" style="fill: #4f4532"/>
            <path d="M85.166,69.3h1.5a.952.952,0,0,1,.952.952v1.5a.951.951,0,0,1-.951.951h-1.5a.952.952,0,0,1-.952-.952v-1.5a.951.951,0,0,1,.951-.951Z" transform="translate(-25.045 81.55) rotate(-45)" style="fill: #4f4532"/>
            <path d="M75.071,66.43a4.881,4.881,0,0,0-.635-.277c-.033-.011-.068-.017-.1-.027a5.655,5.655,0,0,0-.6-.167.189.189,0,0,0-.026-.005,6.593,6.593,0,0,0-4.224.469l-7.236,4.035a.951.951,0,0,0-.209,1.5L63.277,73.2a.954.954,0,0,0,1.113.171L71.244,69.8a2.363,2.363,0,0,1,1-.194,3.305,3.305,0,0,1,.574.046l.009,0a2.087,2.087,0,0,1,.221.052c.012,0,.026.005.038.009a1.313,1.313,0,0,1,.215.087l6.708,3.745a.951.951,0,0,0,1.134-.158L82.6,71.94a.951.951,0,0,0-.214-1.509Z" style="fill: #4f4532"/>
            <path d="M74.436,66.153c-.033-.011-.068-.017-.1-.027a5.655,5.655,0,0,0-.6-.167.189.189,0,0,0-.026-.005,6.593,6.593,0,0,0-4.224.469l-.988.551a19.281,19.281,0,0,0-.809,4.17,2.652,2.652,0,0,0,.048.476L71.244,69.8a2.363,2.363,0,0,1,1-.194,3.305,3.305,0,0,1,.574.046l.009,0a2.087,2.087,0,0,1,.221.052c.012,0,.026.005.038.009a1.313,1.313,0,0,1,.215.087L77,71.862a2.664,2.664,0,0,0,.1-.719,18.806,18.806,0,0,0-.767-4.025l-1.263-.688A4.881,4.881,0,0,0,74.436,66.153Z" style="fill: #5b503b"/>
            <path d="M74.984,70.249a2.561,2.561,0,1,0-5.122,0c0,.087,0,.174.013.26l1.369-.713a2.363,2.363,0,0,1,1-.194,3.305,3.305,0,0,1,.574.046l.009,0a2.087,2.087,0,0,1,.221.052c.012,0,.026.005.038.009a1.313,1.313,0,0,1,.215.087l1.634.912A2.527,2.527,0,0,0,74.984,70.249Z" style="fill: #685b44"/>
            <path d="M125.829,98.856l0,0-.023-.056L106.948,39.4a36.518,36.518,0,0,0-69.613,0L18.476,98.8l-.023.056,0,0a13.074,13.074,0,0,0-.7,4.209c0,.219,0,.435.016.652a13.094,13.094,0,0,0,12.369,12.422l6.169,1.041c11.2,1.889,23.5,3.6,34.921,3.784a.119.119,0,0,0,.005.036c.3,0,.618-.016.923-.019.357,0,.722.019,1.077.019.005,0,.014-.016.024-.043,11.247-.221,23.737-1.926,34.707-3.777l6.17-1.041h0a13.093,13.093,0,0,0,12.368-12.422c.012-.217.016-.434.016-.652A13.1,13.1,0,0,0,125.829,98.856Zm-26.153.672c0,14.517-12.6,17.158-26.937,17.449-14.357-.291-27.317-2.933-27.317-17.449V62.173c0-15.02,12.015-20.5,26.958-20.647-.091,0-.181-.007-.272-.007h.882c-.092,0-.183.005-.273.007,14.943.144,26.959,5.626,26.959,20.647Z" style="fill: #483f2e"/>
          </g>
        </g>
      </g>
    </g>
  </g>
</svg>
