<svg xmlns="http://www.w3.org/2000/svg" viewBox="0 0 141.032 141.031">
  <title>Fichier 1</title>
  <g id="Calque_2" data-name="Calque 2">
    <g id="board">
      <g>
        <path d="M87.078,107.606A14.131,14.131,0,0,1,77.5,94.184v-15.7H64.537V94.205a14.13,14.13,0,0,1-9.56,13.416,33.827,33.827,0,0,0-21.653,22.8,70.467,70.467,0,0,0,75.286-.578A33.827,33.827,0,0,0,87.078,107.606Z" style="fill: #c0bfbf"/>
        <g>
          <path d="M122.967,47.6c-1.647-15.051-11.475-25.634-25.635-25.634H83.959c-17.7,0-18.455,20.673-16.762,39.148h29.55v9.911a30.149,30.149,0,0,0-.255,3.928l13.825,53.771a70.881,70.881,0,0,0,17.294-16.842Z" style="fill: #b6c64f"/>
          <path d="M122.967,47.6l.248,3.445a22.556,22.556,0,0,1-4.082,5.943l-7.422,7.423a3.308,3.308,0,1,1-4.678-4.678l7.423-7.422a18.959,18.959,0,0,0,3.954-6.888h-.266a11.653,11.653,0,0,1-11.64-11.64V24.157c0-.175.005-.349.013-.522a23.346,23.346,0,0,1,6.6,3.9v6.243a5.033,5.033,0,0,0,5.026,5.026h1.235v-3.37A34.091,34.091,0,0,1,122.967,47.6Z" style="fill: #cdd860"/>
          <path d="M57.84,21.965H44.467c-14.159,0-23.988,10.583-25.634,25.634l-4.713,65.248a70.9,70.9,0,0,0,17.249,16.32L45.308,74.952a30.149,30.149,0,0,0-.255-3.928V61.113H74.6C76.294,42.638,75.54,21.965,57.84,21.965Z" style="fill: #b6c64f"/>
          <path d="M18.833,47.6l-.249,3.445a22.545,22.545,0,0,0,4.082,5.943l7.422,7.423a3.307,3.307,0,0,0,4.677-4.678L27.342,52.31a18.961,18.961,0,0,1-3.952-6.888h.264A11.654,11.654,0,0,0,35.3,33.782V24.157c0-.175-.005-.349-.014-.522a23.375,23.375,0,0,0-6.6,3.9v6.243a5.032,5.032,0,0,1-5.025,5.026H22.419v-3.37A34.09,34.09,0,0,0,18.833,47.6Z" style="fill: #cdd860"/>
          <path d="M58.208,28.211H44.835c-14.159,0-24.724,10.951-26.37,26l-.248,1.893-4.1,56.741a70.931,70.931,0,0,0,17.25,16.32L45.308,74.952a30.149,30.149,0,0,0-.255-3.928V61.113H74.6A125.255,125.255,0,0,0,75.2,47.9C73.994,36.824,69.63,28.211,58.208,28.211Z" style="fill: #9cb341"/>
          <g>
            <path d="M18.855,51.573a22.033,22.033,0,0,0,3.812,5.414l7.422,7.423a3.307,3.307,0,0,0,4.677-4.678L27.342,52.31a18.961,18.961,0,0,1-3.952-6.888h.264A11.654,11.654,0,0,0,35.3,33.782v-3.75a24.725,24.725,0,0,0-6.626,3.974,5.029,5.029,0,0,1-4.437,4.767A31.334,31.334,0,0,0,18.855,51.573Z" style="fill: #b6c64f"/>
            <path d="M26.414,101.356,14.474,113.3q2.019,2.641,4.274,5.081L31.09,106.035a3.308,3.308,0,1,0-4.677-4.68Z" style="fill: #b6c64f"/>
            <path d="M29.048,85.963V76.338A11.651,11.651,0,0,0,17.6,64.7l-.477,6.609h.287a5.031,5.031,0,0,1,5.025,5.026v9.625a5.03,5.03,0,0,1-5.025,5.025H15.7L15.22,97.6h2.187A11.654,11.654,0,0,0,29.048,85.963Z" style="fill: #b6c64f"/>
          </g>
          <path d="M37.777,48.239c0,10.7,3.042,19.9,7.406,24-.037-.407-.079-.812-.131-1.211V61.113H74.6c1.693-18.475.939-39.148-16.761-39.148H50.271C43.371,21.965,37.777,33.729,37.777,48.239Z" style="fill: #cecccc"/>
          <path d="M45.052,65.84,38.388,69.1v32.763l6.919-26.912a30.149,30.149,0,0,0-.255-3.928Z" style="fill: #7c963f"/>
          <path d="M123.581,56.106l-.248-1.893c-1.647-15.05-12.21-26-26.369-26H83.591C72.169,28.211,67.8,36.824,66.6,47.9a125.387,125.387,0,0,0,.6,13.217h29.55v9.911a30.149,30.149,0,0,0-.255,3.928l13.825,53.771a70.89,70.89,0,0,0,17.294-16.842Z" style="fill: #9cb341"/>
          <g>
            <path d="M122.945,51.573a22.06,22.06,0,0,1-3.812,5.414l-7.422,7.423a3.308,3.308,0,1,1-4.678-4.678l7.423-7.422a18.959,18.959,0,0,0,3.954-6.888h-.266a11.653,11.653,0,0,1-11.64-11.64v-3.75a24.719,24.719,0,0,1,6.624,3.974,5.03,5.03,0,0,0,4.439,4.767A31.352,31.352,0,0,1,122.945,51.573Z" style="fill: #b6c64f"/>
            <path d="M110.71,101.356a3.308,3.308,0,0,0,0,4.68l11.95,11.951q2.237-2.455,4.237-5.118l-11.511-11.513A3.31,3.31,0,0,0,110.71,101.356Z" style="fill: #b6c64f"/>
            <path d="M112.752,85.963V76.338A11.65,11.65,0,0,1,124.2,64.7l.477,6.609h-.288a5.032,5.032,0,0,0-5.026,5.026v9.625a5.031,5.031,0,0,0,5.026,5.025h1.71l.477,6.615h-2.187A11.652,11.652,0,0,1,112.752,85.963Z" style="fill: #b6c64f"/>
          </g>
          <path d="M104.24,48.239c0,10.7-3.043,19.9-7.406,24,.036-.407.078-.812.13-1.211V61.113H67.417c-1.693-18.475-.939-39.148,16.76-39.148h7.569C98.646,21.965,104.24,33.729,104.24,48.239Z" style="fill: #cecccc"/>
          <path d="M96.777,65.93l6.663,3.261v32.764L96.521,75.042a30.056,30.056,0,0,1,.256-3.927Z" style="fill: #7c963f"/>
          <path d="M64.886,60.323A13.112,13.112,0,0,1,51.774,73.436c-7.244,0-19.728-5.871-19.728-13.113S44.53,47.21,51.774,47.21A13.113,13.113,0,0,1,64.886,60.323Z" style="fill: #614219"/>
          <path d="M45.052,60.323a5.194,5.194,0,0,1-5.193,5.193c-2.869,0-7.813-2.325-7.813-5.193s4.944-5.193,7.813-5.193A5.194,5.194,0,0,1,45.052,60.323Z" style="fill: #6f4c21"/>
          <path d="M110.085,60.323c0,7.242-12.117,13.113-19.359,13.113a13.113,13.113,0,1,1,0-26.226C97.967,47.21,110.085,53.081,110.085,60.323Z" style="fill: #614219"/>
          <path d="M97.078,60.323a5.194,5.194,0,0,0,5.194,5.193c2.868,0,7.812-2.325,7.812-5.193s-4.944-5.193-7.812-5.193A5.194,5.194,0,0,0,97.078,60.323Z" style="fill: #6f4c21"/>
          <path d="M84.266,106.295A14.185,14.185,0,0,1,77.5,94.184V87H64.537v7.2a14.187,14.187,0,0,1-6.554,11.982v.143H84.266Z" style="fill: #9cb341"/>
          <path d="M71.265,97a16.9,16.9,0,0,0,6.311-1.352,14.352,14.352,0,0,1-.078-1.467v-15.7H64.537V94.205c0,.41-.02.818-.054,1.223A16.921,16.921,0,0,0,71.265,97Z" style="fill: #7c963f"/>
          <path d="M97.05,47.339c-.228-17.6-12.029-25.675-26.246-25.675C56.446,21.664,44.8,29.9,44.8,47.871v16.29c0,16.041,14.456,29.165,25.979,29.165S97.05,80.2,97.05,64.161Z" style="fill: #cecccc"/>
          <path d="M94.1,54.606c-.2-16.678-10.593-25.8-23.112-25.8-12.643,0-22.9,9.276-22.9,26.306v7.72c0,15.2,12.73,27.642,22.878,27.642S94.1,78.032,94.1,62.831Z" style="fill: #d8d6d6"/>
          <path d="M70.8,21.664C56.446,21.664,44.8,29.9,44.8,47.871V61.835c0-17.969,11.649-26.207,26.007-26.207,14.217,0,26.018,8.076,26.246,25.675V47.339C96.822,29.739,85.021,21.664,70.8,21.664Z" style="fill: #734f15"/>
          <path d="M93.061,46.437C90.125,34.976,81.275,28.8,70.984,28.8c-10.006,0-18.515,5.817-21.631,16.685C54.042,38.8,61.9,35.628,70.8,35.628,80.119,35.628,88.4,39.1,93.061,46.437Z" style="fill: #815a26"/>
          <path d="M44.836,66.495C45.665,81.876,59.6,94.221,70.777,94.221s25.38-12.339,26.232-27.715C96.268,49.745,84.692,42.034,70.8,42.034S45.571,49.737,44.836,66.495Z" style="fill: #9cb341"/>
          <path d="M94.1,54.674C89.7,46.08,80.86,42.034,70.8,42.034c-9.752,0-18.247,3.808-22.7,11.876-.011.4-.022.794-.022,1.2v7.72c0,15.2,12.73,27.642,22.878,27.642S94.1,78.032,94.1,62.831Z" style="fill: #b6c64f"/>
          <g>
            <path d="M48.082,66.343c0-.832.031-1.64.08-2.436-.048-.651-.08-1.307-.08-1.969Z" style="fill: #b6c64f"/>
            <path d="M94.1,61.938c0,.651-.032,1.3-.078,1.937.04.644.071,1.3.078,1.964Z" style="fill: #b6c64f"/>
          </g>
          <path d="M75.605,70.658c0,1.858-2.015,3.362-4.5,3.362s-4.5-1.5-4.5-3.362,2.016-9.976,4.5-9.976S75.605,68.8,75.605,70.658Z" style="fill: #9e9e44"/>
          <path d="M86.069,67.34" style="fill: #f9a870"/>
          <path d="M56.058,67.34" style="fill: #f9a870"/>
          <path d="M66.173,78.961c0,1.828,2.189,3.308,4.892,3.308s4.891-1.48,4.891-3.308" style="fill: #838537"/>
          <path d="M71.065,76.756c-3.638,0-6.585,1.557-6.585,3.479h13.17C77.649,78.314,74.7,76.756,71.065,76.756Z" style="fill: #9e9e44"/>
          <circle cx="71.129" cy="69.801" r="2.45" style="fill: #b2b041"/>
          <path d="M38.107,133.137h64.818q2.925-1.518,5.685-3.294a33.83,33.83,0,0,0-21.532-22.237,14.011,14.011,0,0,1-2.788-1.295H57.782a13.871,13.871,0,0,1-2.8,1.311,33.832,33.832,0,0,0-21.66,22.795Q35.652,131.869,38.107,133.137Z" style="fill: #734f15"/>
          <path d="M78.959,100.469H63.087a14.019,14.019,0,0,1-8.109,7.152,33.525,33.525,0,0,0-10.315,5.66v22.837c.628.248,1.253.5,1.89.73H94.481q1.565-.566,3.093-1.2V113.391a33.575,33.575,0,0,0-10.5-5.785A14.021,14.021,0,0,1,78.959,100.469Z" style="fill: #654618"/>
          <path d="M38.8,133.491a70.479,70.479,0,0,0,64.3-.441,13.509,13.509,0,0,0-11.914-7.423l0-.006H50.93l0,.006A13.49,13.49,0,0,0,38.8,133.491Z" style="fill: #654618"/>
          <path d="M73.477,112.8H68.683A17.223,17.223,0,0,0,54,139.066a70.651,70.651,0,0,0,34.351-.315A17.225,17.225,0,0,0,73.477,112.8Z" style="fill: #734f15"/>
          <path d="M56.058,67.34" style="fill: #f9a870"/>
          <path d="M58.074,103.828v3.424l6.475,6.428a9.352,9.352,0,0,0,13.2-.023l6.4-6.4v-3.424Z" style="fill: #c0bfbf"/>
          <path d="M78.747,99.863H63.5a7.385,7.385,0,0,0-7.385,7.387H86.132A7.386,7.386,0,0,0,78.747,99.863Z" style="fill: #d8d6d6"/>
          <g>
            <path d="M79.868,60.866,83.39,67.34h3.152a6.474,6.474,0,0,0,6.474-6.474H79.868Z" style="fill: #3b3424"/>
            <path d="M48.986,60.866a6.475,6.475,0,0,0,6.475,6.474h3.151l3.522-6.474Z" style="fill: #3b3424"/>
          </g>
          <path d="M56.189,54.479h3.667A4.624,4.624,0,0,1,64.479,59.1v2.036a6.2,6.2,0,0,1-6.2,6.2h-.49a6.354,6.354,0,0,1-6.354-6.354V59.233A4.754,4.754,0,0,1,56.189,54.479Z" transform="translate(115.913 121.819) rotate(180)" style="fill: #fff"/>
          <path d="M57.957,65.456h0a2.212,2.212,0,0,0,2.205-2.205V58.384a2.212,2.212,0,0,0-2.205-2.206h0a2.212,2.212,0,0,0-2.205,2.206v4.867A2.212,2.212,0,0,0,57.957,65.456Z" style="fill: #9bb3bd"/>
          <path d="M83.877,54.479h.49a6.2,6.2,0,0,1,6.2,6.2v2.038a4.622,4.622,0,0,1-4.622,4.622H82.277a4.755,4.755,0,0,1-4.755-4.755V60.833A6.354,6.354,0,0,1,83.877,54.479Z" style="fill: #fff"/>
          <path d="M84.045,65.456h0a2.212,2.212,0,0,1-2.2-2.205V58.384a2.212,2.212,0,0,1,2.2-2.206h0a2.212,2.212,0,0,1,2.205,2.206v4.867A2.212,2.212,0,0,1,84.045,65.456Z" style="fill: #9bb3bd"/>
        </g>
        <circle cx="57.945" cy="32.889" r="9.117" style="fill: #9f9d9d"/>
        <circle cx="57.945" cy="32.67" r="5.97" style="fill: #3d3c3b"/>
        <circle cx="84.035" cy="32.889" r="9.117" style="fill: #9f9d9d"/>
        <circle cx="84.036" cy="32.67" r="5.97" style="fill: #3d3c3b"/>
      </g>
    </g>
  </g>
</svg>
