<svg xmlns="http://www.w3.org/2000/svg" viewBox="0 0 143.032 143.032">
  <title>Fichier 3</title>
  <g id="Calque_2" data-name="Calque 2">
    <g id="board">
      <g>
        <g>
          <g>
            <path d="M59.442,27.375V50.8a38.51,38.51,0,0,1,0,74.987v15.191a70.311,70.311,0,0,0,22.529.274A61.529,61.529,0,0,0,59.442,27.375Z" style="fill: #c1a16d"/>
            <g>
              <path d="M100.124,109.447H42.757c-.277,0-.552.006-.825.016-.17.007-.34.013-.508.021q-2.178.076-4.17.31v23.354a70.483,70.483,0,0,0,72.921-2.667V110.616a41.515,41.515,0,0,0-8.718-1.132Q100.795,109.448,100.124,109.447Z" style="fill: #374c5f"/>
              <path d="M50.488,88.81v29.379l10.18,6.827c5.746,3.857,15.022,3.845,20.748-.024L88.2,120.4a7.444,7.444,0,0,0,3.278-6.17V88.81Z" style="fill: #41586d"/>
              <path d="M54.539,109.205" style="fill: #516b85"/>
            </g>
            <g>
              <path d="M54.539,109.205" style="fill: #516b85"/>
              <g>
                <path d="M112.568,111.336l-.093-.181-.427,0-.533-.467-1.339-.076a41.515,41.515,0,0,0-8.718-1.132q-.663-.037-1.334-.037H98.994v27.029A70.627,70.627,0,0,0,122.7,120a34.081,34.081,0,0,0-3.3-4.577A18.921,18.921,0,0,0,112.568,111.336Z" style="fill: #3a3323"/>
                <path d="M30.325,111.334a21.143,21.143,0,0,0-3.639,1.675,20.766,20.766,0,0,0-6.249,7.094A70.635,70.635,0,0,0,43.581,136.27v-24.6l-13.255.1Z" style="fill: #3a3323"/>
              </g>
              <path d="M135.579,100.98A11.509,11.509,0,0,0,114.5,102a38.736,38.736,0,0,1-35.093,24.788A28.9,28.9,0,0,1,80.108,69,11.524,11.524,0,0,0,85.6,47.341a11.52,11.52,0,0,0-7.1-20.595A61.518,61.518,0,0,0,35.133,131.928,70.525,70.525,0,0,0,135.579,100.98Z" style="fill: #d1ad75"/>
              <path d="M71.158,61.23c-11.178,0-20.323,10.148-20.323,22.551V99.533c0,12.4,9.145,22.551,20.323,22.551s20.325-10.147,20.325-22.551V83.781C91.482,71.379,82.335,61.23,71.158,61.23Z" style="fill: #e9c082"/>
              <path d="M71.348,61.23c-11.074,0-20.134,10.148-20.134,22.551v15.6c4.923,3.731,12.045,5.321,20,5.4-.091,0-.182.008-.272.008h.88c-.091,0-.181-.006-.271-.008,7.918-.075,15.014-1.652,19.936-5.352V83.781C91.482,71.379,82.421,61.23,71.348,61.23Z" style="fill: #d3af76"/>
              <path d="M63.483,133.838a2.869,2.869,0,0,1-2.868,2.868h0a2.868,2.868,0,0,1-2.868-2.868V116.163a2.867,2.867,0,0,1,2.868-2.866h0a2.868,2.868,0,0,1,2.868,2.866Z" style="fill: #e9c082"/>
              <path d="M84.992,133.838a2.868,2.868,0,0,1-2.868,2.868h0a2.868,2.868,0,0,1-2.868-2.868V116.163a2.867,2.867,0,0,1,2.868-2.866h0a2.867,2.867,0,0,1,2.868,2.866Z" style="fill: #e9c082"/>
              <path d="M94.823,29.738a27.3,27.3,0,0,1-4.305-8.681c-2.61-8.492-10.233-13.6-19.17-13.6-8.967,0-16.612,5.144-19.2,13.683a27.187,27.187,0,0,1-4.263,8.654A19.153,19.153,0,0,0,44.25,41.749V80.295c0,15.02,12.015,20.5,26.959,20.646-.091,0-.182.008-.272.008h.88c-.091,0-.181-.008-.271-.008C86.488,100.8,98.5,95.314,98.5,80.295V41.749A19.118,19.118,0,0,0,94.823,29.738Z" style="fill: #e9c082"/>
              <path d="M71.523,26.807c.079,0,.157-.007.237-.007h-.766c.079,0,.157.006.236.007-13,.125-23.46,4.9-23.46,17.969V69.859A5.708,5.708,0,0,0,53.524,75.5,4.608,4.608,0,0,1,58.066,80.1v8.968A6.344,6.344,0,0,0,63.127,95.3a43.125,43.125,0,0,0,8.1.792c-.079,0-.157,0-.236,0h.766c-.08,0-.158,0-.237,0a42.808,42.808,0,0,0,8.229-.818A6.209,6.209,0,0,0,84.7,89.18L84.689,80.1A4.609,4.609,0,0,1,89.3,75.494h0a5.686,5.686,0,0,0,5.687-5.686V44.775C94.984,31.7,84.528,26.932,71.523,26.807Z" style="fill: #f4cd98"/>
              <g>
                <path d="M87.037,59.126H83.2a4.969,4.969,0,0,0-4.97,4.97v1.831a6.641,6.641,0,0,0,6.641,6.642h.513a6.481,6.481,0,0,0,6.481-6.481V63.959A4.832,4.832,0,0,0,87.037,59.126Z" style="fill: #e9c082"/>
                <path d="M59.5,59.126H55.667a4.832,4.832,0,0,0-4.833,4.833v2.129a6.481,6.481,0,0,0,6.481,6.481h.512a6.641,6.641,0,0,0,6.641-6.642V64.1A4.968,4.968,0,0,0,59.5,59.126Z" style="fill: #e9c082"/>
              </g>
              <path d="M76.1,72.2c0,1.941-2.108,3.515-4.707,3.515s-4.705-1.574-4.705-3.515,2.106-10.428,4.705-10.428S76.1,70.255,76.1,72.2Z" style="fill: #e6a277"/>
              <path d="M84.874,55.286h.514a6.481,6.481,0,0,1,6.481,6.481V63.9a4.832,4.832,0,0,1-4.832,4.832H83.2a4.97,4.97,0,0,1-4.97-4.97V61.926A6.64,6.64,0,0,1,84.874,55.286Z" style="fill: #fff"/>
              <path d="M85.052,66.759h0a2.311,2.311,0,0,1-2.3-2.3V59.365a2.311,2.311,0,0,1,2.3-2.3h0a2.311,2.311,0,0,1,2.3,2.3v5.089A2.311,2.311,0,0,1,85.052,66.759Z" style="fill: #a75319"/>
              <path d="M55.8,55.286h3.834a4.832,4.832,0,0,1,4.832,4.832v2.128a6.482,6.482,0,0,1-6.482,6.482h-.514a6.64,6.64,0,0,1-6.64-6.64V60.255A4.969,4.969,0,0,1,55.8,55.286Z" transform="translate(115.302 124.014) rotate(180)" style="fill: #fff"/>
              <path d="M57.652,66.759h0a2.311,2.311,0,0,0,2.3-2.3V59.365a2.311,2.311,0,0,0-2.3-2.3h0a2.311,2.311,0,0,0-2.3,2.3v5.089A2.311,2.311,0,0,0,57.652,66.759Z" style="fill: #a75319"/>
              <path d="M79.075,81.033a1.008,1.008,0,0,1-1.008,1.008H64.391a1.007,1.007,0,0,1-1.008-1.008h0a1.008,1.008,0,0,1,1.008-1.009H78.066a1.008,1.008,0,0,1,1.008,1.009Z" style="fill: #c1a16d"/>
            </g>
            <circle cx="57.421" cy="40.441" r="8.129" style="fill: #e9c082"/>
            <circle cx="84.692" cy="40.441" r="8.129" style="fill: #e9c082"/>
            <circle cx="71.572" cy="71.541" r="2.561" style="fill: #f4af89"/>
          </g>
        </g>
      </g>
    </g>
  </g>
</svg>
